<svg width="793" height="517" viewBox="0 0 793 517" fill="none" xmlns="http://www.w3.org/2000/svg">
<g clip-path="url(#clip0)">
<path d="M136.41 7.12972L133.01 13.5497L132.01 16.9797L131.4 20.7997L133.42 23.6197L134.42 26.6397L132.61 29.2597L129.79 34.4897L128.38 36.6997L130.6 35.6997L132.21 33.6797L133.62 32.6797L137.44 33.2797L139.86 33.8797L140.06 37.1097L137.24 37.5097L137.04 45.7597L135.03 44.7497L133.22 45.1597L131.4 47.1697L132.01 49.5897L135.23 52.1997L138.25 54.0097L137.24 57.2397V61.2597L135.83 64.2797L133.01 65.2897L131.2 64.2797L130 61.4597H128.38V64.8797L129.59 66.4897L129.79 72.7297L130.2 76.7597L133.22 78.5697L135.43 76.1597L137.85 71.9297L139.66 67.8997L142.07 66.4897L145.09 68.0997L147.51 67.2997L146.7 64.4797L145.49 61.8597L144.69 57.2397L145.29 54.6197L146.7 53.2097L148.51 53.0097H150.73L151.73 48.7797L154.55 42.7397L157.77 37.3097L159.79 31.4697L159.43 23.7397L216.21 64.7297L212.32 65.0897L213.33 67.0997L214.94 68.5097L215.95 69.9197L215.14 73.7397L212.32 78.7697L207.69 83.3997L201.45 88.4397L199.84 91.8597L200.85 93.6697L199.64 95.4797H196.22L195.62 98.0997L188.57 100.92L183.74 102.53L178.71 103.53L175.08 102.32L173.07 102.93L169.25 103.73L168.04 102.73L165.62 101.32L162 103.53L157.57 103.33L151.53 102.73L148.51 102.32L145.9 100.11L140.66 99.3097L138.85 97.4897L136.64 96.4897L135.63 92.8597L138.45 91.0497L140.26 88.8397L139.46 85.2097L137.85 84.2097L135.23 85.4197L130.2 87.0297L128.38 87.8297L125.97 87.6297L124.36 88.0297L123.35 90.0497L121.34 89.4397L118.72 87.4297L115.7 87.2297L111.68 85.6197L108.66 84.2097L106.44 81.5897L104.23 76.3597L103.83 71.1197L106.85 62.6697L107.25 60.0497L105.24 56.4297L104.03 53.6097L103.83 47.5697L104.23 42.9397L106.24 37.5097L109.26 32.6797L110.47 27.0397L113.09 24.4197L113.29 18.5897L115.3 15.3697L119.13 11.9397L119.33 7.10972L120.94 3.88972L121.11 0.339722" fill="white"/>
<path d="M136.41 7.12972L133.01 13.5497L132.01 16.9797L131.4 20.7997L133.42 23.6197L134.42 26.6397L132.61 29.2597L129.79 34.4897L128.38 36.6997L130.6 35.6997L132.21 33.6797L133.62 32.6797L137.44 33.2797L139.86 33.8797L140.06 37.1097L137.24 37.5097L137.04 45.7597L135.03 44.7497L133.22 45.1597L131.4 47.1697L132.01 49.5897L135.23 52.1997L138.25 54.0097L137.24 57.2397V61.2597L135.83 64.2797L133.01 65.2897L131.2 64.2797L130 61.4597H128.38V64.8797L129.59 66.4897L129.79 72.7297L130.2 76.7597L133.22 78.5697L135.43 76.1597L137.85 71.9297L139.66 67.8997L142.07 66.4897L145.09 68.0997L147.51 67.2997L146.7 64.4797L145.49 61.8597L144.69 57.2397L145.29 54.6197L146.7 53.2097L148.51 53.0097H150.73L151.73 48.7797L154.55 42.7397L157.77 37.3097L159.79 31.4697L159.43 23.7397L216.21 64.7297L212.32 65.0897L213.33 67.0997L214.94 68.5097L215.95 69.9197L215.14 73.7397L212.32 78.7697L207.69 83.3997L201.45 88.4397L199.84 91.8597L200.85 93.6697L199.64 95.4797H196.22L195.62 98.0997L188.57 100.92L183.74 102.53L178.71 103.53L175.08 102.32L173.07 102.93L169.25 103.73L168.04 102.73L165.62 101.32L162 103.53L157.57 103.33L151.53 102.73L148.51 102.32L145.9 100.11L140.66 99.3097L138.85 97.4897L136.64 96.4897L135.63 92.8597L138.45 91.0497L140.26 88.8397L139.46 85.2097L137.85 84.2097L135.23 85.4197L130.2 87.0297L128.38 87.8297L125.97 87.6297L124.36 88.0297L123.35 90.0497L121.34 89.4397L118.72 87.4297L115.7 87.2297L111.68 85.6197L108.66 84.2097L106.44 81.5897L104.23 76.3597L103.83 71.1197L106.85 62.6697L107.25 60.0497L105.24 56.4297L104.03 53.6097L103.83 47.5697L104.23 42.9397L106.24 37.5097L109.26 32.6797L110.47 27.0397L113.09 24.4197L113.29 18.5897L115.3 15.3697L119.13 11.9397L119.33 7.10972L120.94 3.88972L121.11 0.339722" stroke="black" stroke-width="0.1"/>
<path d="M676.69 291.56L675.18 289.79L673.98 289.27L674.25 288.9L673.52 289.45L673.25 289.93L673.44 290.6L674.45 290.63L675.67 291.53L678.85 295.84L679.05 295.49L678.41 293.91L677.64 292.93L676.69 291.56Z" fill="#ECECEC"/>
<path d="M752.33 320.41L752.22 316.8L751.91 315.96L747.9 314.68L745.65 314.23L745.41 314.4H745.08L735.83 312.83L733.59 309.37L732.97 308.72L729.95 307.16L725.79 306.56L725.59 308.01L722.56 303.53L724.46 302.32L722.26 299.65L724.29 297.75L725.48 296.95L734.07 294.76L737.75 294.79L738.32 295.05L739.05 295.61L742.38 296.35L743.84 296.5L748.72 296.06L749.25 295.79L749.65 295.34L750.91 289.47L751.15 289.62L751.82 289.61L754.67 288.26L755.43 288.08L756.65 287.16L757.78 285.92L758.47 285.85L758.62 286.03L759.94 286.38L760.91 287.06L761.8 287.11L762.59 287.51L763.45 287.42L764.23 287.59L764.89 287.91L765.15 289.08L765.05 289.73L764.23 291.25L764.24 291.47L764.42 291.69L764.57 291.67L765.03 290.95L765.26 290.9L765.5 290.87L765.97 291.11L766.39 291.5L767.71 293.76L768.29 294.45L768.49 296.45L769.26 297L770.46 297.35L771.79 298L773.36 298.58L773.91 298.38L775.73 298.67L776.67 298.27L777.59 298.08L778.27 298.29L780.48 297.73L781.2 297.75L782.02 298.2L783.54 299.87L783.92 300.92L784.09 301.07L784.75 301.23L785.26 301.19L785.91 300.94L786.1 300.64L786.74 300.31L787.14 299.83L787.72 299.81L788.07 299.6L787.92 299.06L787.34 298.66L786.99 298.17L787.42 296.75L787.65 296.52L788.08 296.53L789.09 297.99L789.99 298.19L791.12 298.95L792.07 298.43L793.57 298.5L794 298.88L794.23 299.85L793.8 301.59L793.37 302.2L792.92 302.51L790.04 303.72L788.38 303.96L787.75 304.83L786.59 305.63L785.19 306.41L784.38 306.58L784.33 306.81L783.46 307.01L782.12 307.75L781.12 308.71L779.58 309.21L778.45 309.06L777.66 309.17L777.35 309.53L777.3 309.85L777.44 310.29L777.82 310.75L777.85 311.09L777.11 311.7L777.01 312.12L777.19 314.86L777.12 315.93L776.47 316.14L775.95 315.84L774.99 314.86L773.49 314.52L773.17 314.89L773.12 315.65L772.25 316.28L772.11 316.52L771.9 317.92L771.32 318.99L770.65 319.15L770.23 319.11L768.84 317.99L767.37 317.92L766.68 317.54L765.77 316.67L765.26 316.49L764.58 316.78L764.37 316.74L763 315.07L762.45 314.07L761.06 312.9L760.66 312.71L759.68 313.14L758.58 313.15L758.18 313.69L758.33 313.97L759.45 314.35L759.77 314.66L760.23 315.69L761.28 316.01L761.69 316.57L761.65 317.12L761.3 317.52L760.27 317.62L760 317.81L759.83 318.32L759.97 318.77L761.05 318.66L761.31 319.03L761.54 320.5L762.03 321.03L762.27 321.78L761.13 324.45L761.41 325.28L761.34 325.92L761.17 326.08L760.87 326.14L759.39 325.76L758.94 325.49L757.39 323.89L756.74 323.43L756.45 323.33L755.65 323.63L755.33 323.42L754.83 322.71L754.54 322.5L753.64 322.51L753.37 322.4L753.19 322L753.52 320.87L753.46 320.62L753.01 320.35L752.33 320.41Z" fill="#ECECEC" stroke="black" stroke-width="0.1"/>
<path d="M423.26 383.37L419.49 386.96L416.14 389.18L415.57 389.29L411.17 394L410.82 395.03L410.97 395.89L411.68 397.09L412.51 397.97L413.33 399.14L413.56 399.65L413.28 400.26L395.16 406.9L389.55 413.13L387.42 410.83L387.01 410.8L385.83 411.1L383.73 412.31L382.73 412.57L381.68 412.59L380.3 412.41L379.45 411.99L376.5 409.56L373.63 407.56L366.84 402.34L365.02 401.17L360.34 397.73L359.03 396.44L357.88 395.05L357.59 394.42L357.18 394.05L356.4 392.82L352.83 389.36L350.81 387.21L346.84 384.4L342.46 381.78L338.01 378.63L333.77 375.85L323.51 368.55L316.55 363.78L302.22 353.25L301.04 352.15L300.13 350.86L299.97 350.33L299.77 349.43L299.83 348.88L299.54 348.18L299.41 346.43L298 344.36L298.02 343.71L298.71 342.52L298.79 339.89L298.41 338.88L298.27 337.65L297.68 335.61L297.62 334.47L297.39 333.7L297.43 333.1L297.79 332.19L297.76 331.18L297.01 329.84L295.85 328.79L295.13 327.73L295.07 327.22L295.57 325.68L295.86 324.21L295.82 323.9L294.5 323.38L293.18 322.54L291.86 321.09L290.59 320.52L289.27 319.65L288.87 319.09L295.15 311.48L299.74 306.35L300.53 302.55L300.56 301.01L299.88 299.86L293.97 293.18L290.73 289.85L301.67 284.79L287.89 265.61L288.45 265.33L292.12 264.41L305.67 261.2L306.72 261.12L310.06 267.82L311.45 269.88L313.6 272.2L315.99 273.75L319.53 275.65L321.1 277.23L323.18 281.58L324.58 286.73L325.15 288.12L326.03 288.03L326.48 287.66L328.52 287.61L331.68 288.52L337.06 290.83L345.54 295.43L355.37 301.13L357.49 302.8L358.05 303.85L358.39 305.34L357.91 307.57L361.31 307.48L363.95 307.25L364.5 307.06L369.88 294.87L370.92 293.78L373.11 292.61L373.99 292.76L375.66 294.69L375.76 302.3L391.95 304.19L392.14 303.7L392.96 299.21L393.53 299.02L398.55 298.44L402.34 298.38L404.61 298L405.74 295.32L406.46 293.22L406.91 293.03L407.88 293.25L408.67 296.08L410.81 306.2L411.95 307.3L412.75 307.72L413.78 308.06L422.41 309.25L428.34 309.88L436.31 311.02L434.91 320.28L430.92 323.09L430.75 324.12L429.3 328.25L425.95 332.39L425.31 333L424.37 333.38L420.52 333.15L417.62 332.61L415.61 331.62L414.79 330.83L412.79 329.53L410.73 329.41L409.62 329.89L409.26 330.51L409.62 333.83L409.17 338.19L407.88 343.9L405.35 348.68L403.22 351.15L398.82 353.82L397.93 354.15L396.51 356.87L400.78 362.66L401.97 363.81L409.03 366.48L410.11 366.54L413.31 365.76L418.22 369.45L422.61 378.84L422.97 379.99L423.26 383.37Z" fill="#ECECEC" stroke="black" stroke-width="0.1"/>
<path d="M675.77 331.36L675.87 330.7L675.64 330.15L674.9 329.49L671.99 328.18L670.36 327.85L669.36 327.45H669.04L668.14 327.88L667.71 327.85L667.25 327.64L666.92 327.27L666.46 326.16L666.17 325.85L665.89 325.75L665.74 325.01L664.83 323.24L664.77 322.63L664.9 322.43L665.71 322.21L666.71 321.4L667.9 321.18L669 320.61L671.05 319.89H671.85L672.32 319.48L672.44 318.67L672.88 318.23L673.02 317.34L673.21 316.94L673.61 316.72L674.2 316.64L674.97 316.71L675.45 316.35L676.17 316.33L676.6 316.17L677.47 315.06L678.58 312.84L678.94 312.46L679.59 312.28L680.27 311.55L680.78 311.38L680.93 311.1L681.34 311.02L681.75 310.52L682.72 310.3L683.12 310.58L683.44 310.61L683.49 309.95L683.31 308.96L683.62 308.73L683.9 308.98L684.56 308.94L685 308.36L685.3 307.36L685.88 306.83L685.94 306.57L686.28 306.48L686.54 306.22L691.41 304.97L694.78 304.36L701.54 304.26V304.48L701.17 305L699.81 306.66L700.64 308.63L702.51 310.49L708.1 313.22L708.5 313.3L709.25 312.88L712.27 310.03L713.03 309.04L713.77 307.59L715.01 306.79L719.12 304.56L722.56 303.53L725.59 308.01L725.79 306.56L729.95 307.16L732.97 308.72L733.59 309.37L735.83 312.83L745.08 314.4H745.41L745.65 314.23L747.9 314.68L751.91 315.96L752.22 316.8L752.33 320.41L751.84 320.45L750.77 320.19L750.38 320.27L749.87 321.65L749.57 322.15L748.94 322.75L748.48 322.99L748.11 323.06L747.52 322.86L746.63 322.27L746.17 323.31L746.62 325.02L746.48 325.36L745.84 326.07L745.77 326.64L745.48 327.04L744.11 327.45L743.07 328.79L742.56 329.17L741.76 330.3L740.57 330.82L739.64 331.68L739.52 331.94L739.73 332.44L740.71 332.67L741.69 333.56L741.62 334.05L740.51 335.08L740.05 336.16L739.76 336.48L739.1 336.81L738.48 336.79L737.21 335.87L735.19 335.4L734.71 335.79L734.58 336.27L734.63 336.54L735.37 337.67L735.39 338.2L734.64 338.7L734.1 338.67L731.61 340.26L730.29 340.68L729.37 341.34L729.02 341.4L728.77 341.26L728.31 340.41L727.88 339.9L727.64 339.83L727.28 339.43L727.13 339.07L727.3 337.17L727.11 336.36L726.43 335.45L725.91 335.09L725.14 335.01L723.91 335.13L723.8 335.97L724.04 337.4L723.83 338.35L723.91 338.91L723.79 339.11L723.5 339.08L722.69 338.12H721.69L721.14 338.31L720.22 337.73L718.45 336.94L718.23 336.4L718.42 335.05L718.18 334.53L716.88 334.5L715.34 334.1L714.71 333.6L713.62 332.37L713.21 332.1L712.72 331.95L712.22 332.17L711.6 332.23L711.44 331.92L711.53 331.53L711.21 331.28L709.68 331.92L708.93 332.02L708.66 331.92L708.51 331.65L708.49 330.65L706.95 330.76L705.94 330.42L704.94 330.33L704.11 330.44L702.73 330.9L701.75 330.88L701.14 331.09L698.58 332.87L696.63 333.22L694.56 334.12L694.11 334.41L693.97 334.68L694.28 335.6L694.17 336.57L691.79 336.64L689.84 336.99L689.57 336.9L687.87 338.16L685.4 339.26L683.82 339.59L682.42 339.71L679.29 340.4L678.46 340.06L677.28 337.92L676.96 337.04L676.24 336.65L675.71 335.71L675.84 335.6L675.91 334.32L676.28 333.33L675.73 331.58L675.77 331.36Z" fill="#ECECEC" stroke="black" stroke-width="0.1"/>
<path d="M582.63 374.7L582.15 374.95L581.94 376.49L581.62 377.51L580.8 378.24L579.72 377.86L578.57 378.12L575.61 377.65L573.75 378.46L573.36 378.34L572.57 377.58L572.06 377.34L570.64 377.02L568.87 376.81L567.61 376.95L566.68 377.21L565.94 377.08L564.92 376.49L564.18 376.59L561.95 376.43L560.98 375.95L560.24 375.76L559.15 375.85L558.55 375.7L557.45 374.85L556.54 374.48L555.17 374.4L554.25 374.5L552.38 373.66L551.42 372.78L550.04 372.7L547.61 371.05L546.91 371.44L545.7 371.76L543.77 370.93L543.37 370.92L542.49 371.94L541.4 372.32L540.76 372.77L539.82 374.3L539.24 374.46L537.81 374.49L533.83 375.98L533.71 376.66L533.91 378.27L533.5 378.78L531.28 378.23L530.82 378.34L530.47 379.14L530.45 380.45L530.77 380.96L526.24 377.14L525.21 376.09L524.56 375.13L524.35 374.18L524.33 370.02L524.43 369.65L527.65 364.41L528.41 363.5L529.1 362.96L531.26 361.93L532.8 361.55L534.1 361.4L534.02 360.38L532.95 354.42L532.74 354.18L520.87 351.65L516.06 351.25L513.94 350.45L508.11 346.52L507.76 342.81L507.86 342.46L509.1 342.17L509.34 342.01L509.79 340.67L509.86 339.86L508.42 337.05L506.56 335.39L505.72 331.29L505.62 327.36L505.76 326.59L506.59 324.76L506.58 323.66L505.62 321.48L501.01 321.38L493.22 320.46L493.95 318.67L498.38 310.08L501.5 304.76L501.78 304.02L500.21 297.16L499.98 296.63L499.73 296.4L495.46 295.35L494.51 294.77L493.79 293.5L492.66 282.86L499.37 282.64L499.66 279.71L499.88 279.75L500.4 274.99L517.8 276.3L522.44 276.82L525.16 276.83L526.01 277.39L526.88 277.52L528.13 277.11L529.4 276.91L544.81 277.38L546.22 278.67L547.09 278.9L549.14 281.39L552.46 284.47L553.93 283.17L554.77 284.36L557.82 282.38L559.2 283.67L559.79 283.41L560.58 283.88L558.11 284.41L556.7 285.89L558.09 289.34L556.61 290.81L556.69 296.03L552.62 296.18L551.89 298.46L553.33 300.46L555.77 301.14L561.54 304.54L565.13 308.57L568.92 309.91L569.36 310.29L569.19 313.13L568.85 313.74L566.99 313.64L564.89 314.18L564.41 319.07L564.57 319.34L566.68 318.32L567.01 318.22L567.17 318.42L567.02 319.19L566.25 321.19L561.3 332.23L561.1 333.75L561.25 334.71L561.59 335.61L562.25 336.58L562.57 336.63L569.12 336.94L573.69 336.77L577.71 335.95L579.99 335.16L587.12 333.52L587.43 334.2L586.42 340.61L584.87 340.89L584.78 341.03L581.89 341.87L581.65 342.47L582.51 343.27L585.13 344.81L586.36 344.78L588.51 344.33L589.82 343.77L592.69 342.96L593.92 342.41L597.35 341.52L599.03 341.31L602.18 341.2L603.02 341.85L603.43 343.13L603.88 345.51L603.56 346.17L602.81 346.23L601.28 345.87L600.38 345.86L599.63 345.89L598.11 346.24L596.94 347.12L596.73 348.16L596.58 348.28L596.12 348.02L595.82 346.73L595.09 345.63L594.44 345.53L593.86 345.73L593.62 346.01L593.59 346.54L593.94 347.11L594.88 348.05L594.93 348.68L594.52 350.03L594.55 350.33L596.05 351.73L598.66 354.97L599.2 356.07L599.24 356.82L599.04 357.51L598.33 358.23L597.52 358.33L596.9 358.02L596.3 357.08L596.23 355.3L594.88 352.09L594.16 351.21L593.76 351.14L593.29 351.36L593.17 351.76L593.25 352.86L594.29 354.84L595.1 356.76L595.13 357.45L594.77 358.25L594.41 358.52L593.49 358.73L593.19 359.12L592.92 360.55L592.68 360.77L592.22 360.88L591.66 360.46L591.35 359.19L590.57 358.3L590.11 358.17L588.64 359.4L588.13 359.1L586.93 358.95L586.84 360.1L587.14 361.77L586.82 363.08L586.33 363.93L586.08 364.85L585.78 365.41L585.14 365.68L584.51 365.72L584.09 366.23L584.36 366.87L586.24 369.55L585.97 371.27L583.6 373.95L582.63 374.7Z" fill="#ECECEC" stroke="black" stroke-width="0.1"/>
<path d="M751.31 281.15L750.81 280.31L750.35 280.02L749.9 279.95L749.45 280.19L748.4 279.84L747.64 279.81L745.76 281.17L745.41 281.25L744.73 280.95L742.99 279.83L741.85 279.52L740.63 279.38L739.47 280.17L739.01 279.95L738.45 279.9L736.83 279.25L736.51 278.84L736.53 277.96L735.97 277.9L735.6 277.7L735.53 277.49L736.17 275.49L737.09 273.88L737.87 273.08L738.34 272.26L738.9 270.91L738.85 270.66L737.77 270.08L736.92 269.05L736.64 268.4L736.77 267.1L736.63 266.73L736.25 266.45L735.84 266.69L735.5 267.25L734.69 267.42L734.44 267.25L734.38 267.06L734.64 265.76L734.02 264.7L732.62 263.35L731.57 261.14L731.2 261.04L731.06 261.16L730.95 262.85L730.78 263.11L730.47 263.18L730.26 262.77L730.16 262.09L729.85 261.82L729.47 261.79L728.84 262.24L728.72 262.64L729.13 263.3L729.07 263.86L728.8 264.07L728.38 263.81L727.97 263.1L727.87 262.64L727.96 262.21L728.8 261.11L729.26 260.28L729.33 259.81L729.09 258.4L729.22 258.1L729.16 257.36L729.59 256.46L729.24 255.85L728.1 255.8L727.74 255.9L726.97 256.62L726.21 257.98L725.77 258.48L724.51 258.91L724.27 259.26L724.32 259.68L724.64 259.92L725.78 260.03L726.35 260.26L726.85 261.04L726.98 261.72L726.64 262.94L726.2 263.75L726.16 264.16L726.96 265.39L726.67 266.05L726.01 266.77L725.65 267.47L725.38 268.45L725.16 268.46L724.8 268.21L724.54 268.46L724.22 269.18L723.62 269.67L723.45 270.25L723.28 270.29L723.03 271.24L722.65 271.56L722.05 271.4L721.44 270.71L721.04 270.49L720.16 270.47L719.74 270.82L719.07 270.96L718.25 270.45L717.93 270.52L716.49 272.24L716.44 272.65L716.69 273.42L716.43 274.27V274.8L716.61 275.17L717.47 275.54L717.77 276.26L716.88 278.26L716.56 280.25L715.85 281.86L715.82 282.23L714.79 283.35L714.26 283.39L714 283.22L713.85 282.93L713.62 281.16L713.39 280.67L712.6 279.84L712.21 279.65L711.67 279.66L711.16 279.96L710.81 280.37L710.58 281.78L710.18 282.54L709.38 283.29L708.87 283.41L708.49 283.3L708.35 283L708.57 280.61L708.31 279.18L708.05 278.76L707.1 278.13L706.8 278.09L706.18 278.38L706.05 278.78L706.09 279.32L705.78 279.55L705.5 279.49L705.07 278.43L704.75 278.42L704.4 278.72L703.93 279.44L703.45 279.42L703.19 279.57L702.36 280.45L701.86 280.74L701.46 280.77L700.25 280.34L699.84 279.97L699.23 278.95L698.43 278.76L697.2 277.96L696.61 277.99L693.95 279.8L693.39 279.6L692.85 278.37L691.93 277.51L691.07 276.97L690.49 276.12L689.96 275.62L689.69 275.58L688.98 275.9L688.51 276.58L687.68 278.64L687.38 279.08L687.05 279.24L686.19 278.89L685.69 278.28L685.47 277.38L685.5 276.29L686.24 275.34L686.42 274.74L686.32 274.39L685.7 273.48L685.45 272.74L685.38 270.95L685.8 270.03L686.05 268.87L685.56 266.82L683.01 262.74L682.59 261.57L682.4 261.41L681.19 261.07L680.88 261.1L679.74 261.95L678.51 261.89L676.99 262.37L676.01 263.21L675.6 263.95L673.92 265.34H671.84L671.34 264.8L670.66 266.73L667.69 270.84L668.36 278.14L670.27 280.76L670.93 282.1L671.17 284.43L671.2 286.18L671.05 287.06L671.25 287.48L671.7 287.46L672.43 287.86L672.7 288.54L673.8 289.43L673.87 290.05L674.19 290.29L675.07 291.48L675.75 291.5L676.3 292.87L677.31 294.12L677.7 295.01L678.81 296.66L679.27 297.84L679.54 297.85L679.66 298.22L680.63 299.05L681.19 300.42L682.02 300.73L682.55 301.2L683.28 302.19L682.8 302.57L682.63 302.48L682.34 302.66L682.42 302.98L682.23 303.27L681.86 303.37L681.29 303.12L680.82 301.91L680.45 303.15L680.49 303.86L680.81 304.5L681.64 304.26L682.87 304.36L683.72 304.81L683.44 304.99L684.34 305.03L684.77 305.26L685.77 306.11L685.99 306.6L686.33 306.51L686.59 306.25L691.46 305L694.84 304.39L701.59 304.29V304.51L701.22 305.03L699.86 306.69L700.69 308.66L702.57 310.51L708.15 313.24L708.55 313.32L709.31 312.9L712.33 310.05L713.09 309.05L713.84 307.6L715.07 306.81L719.18 304.58L722.62 303.55L724.52 302.34L722.32 299.67L724.35 297.78L725.55 296.98L734.14 294.79L737.81 294.82L738.39 295.07L739.12 295.63L742.45 296.38L743.91 296.53L748.79 296.09L749.32 295.82L749.72 295.36L750.98 289.5L750.56 289.24L750.11 288.66L750.27 288.33L751.53 288.03L752.06 287.62L752.53 286.6L752.08 285.78L751.31 281.15ZM680.85 295.84L677.67 291.53L676.45 290.63L675.44 290.6L675.25 289.92L675.52 289.45L676.25 288.89L675.98 289.27L677.18 289.78L678.69 291.55L680.42 293.9L681.06 295.48L680.85 295.84Z" fill="#ECECEC" stroke="black" stroke-width="0.1"/>
<path d="M500.4 274.99L499.88 279.75L499.66 279.71L499.37 282.64L492.66 282.86L493.79 293.5L494.51 294.77L495.46 295.35L499.73 296.4L499.98 296.63L500.21 297.16L501.78 304.02L501.5 304.76L498.38 310.08L493.95 318.67L493.22 320.46L491.96 316.99L490.1 314.33L489.13 313.21L488.55 312.94L486.44 314.86L484.09 316.15L482.71 316.26L480.88 316.01L479.84 315.22L478.81 313.67L477.62 313.58L476.51 313.77L475.6 314.85L473.45 319.53L472.86 324.44L473.11 324.79L473.65 324.99L474.02 325.71L473.85 327.98L472.97 334.1L472.11 335.44L469.81 341.51L470.01 342.49L470.81 342.59L472.24 341.67L473.06 341.74L473.24 342.19L473.1 343.31L472.67 343.93L469.18 347.22L467.55 347.98L458.64 349.91L457.42 349.71L452.04 347.41L449.95 346.27L449.49 345.23L448.49 343.68L443.01 341.61L442 341.44L441.48 341.72L441.13 342.29L440.97 342.99L441.02 343.96L440.6 349.76L438.77 355.3L438.06 356.59L437.54 356.89L436.95 356.9L434.1 356.02L433.1 355.53L424.45 358.45L423.95 358.8L423.87 359.17L424.2 359.94L425.68 361.47L426.65 362.28L427.59 363.73L428.94 368.95L428.77 369.92L428.26 371.38L427.09 373.72L427.05 374.35L427.22 375.16L428.03 376.97L430.15 380.77L429.75 381.2L429.22 381.41L426.62 381.81L425.23 382.18L424.43 382.56L423.26 383.37L422.97 379.99L422.61 378.84L418.22 369.45L413.31 365.76L410.11 366.54L409.03 366.48L401.97 363.81L400.78 362.66L396.51 356.87L397.93 354.15L398.82 353.82L403.22 351.15L405.35 348.68L407.88 343.9L409.17 338.19L409.62 333.83L409.26 330.51L409.62 329.89L410.73 329.41L412.79 329.53L414.79 330.83L415.61 331.62L417.62 332.61L420.52 333.15L424.37 333.38L425.31 333L425.95 332.39L429.3 328.25L430.75 324.12L430.92 323.09L434.91 320.28L436.31 311.02L428.34 309.88L422.41 309.25L413.78 308.06L412.75 307.72L411.95 307.3L410.81 306.2L408.67 296.08L407.88 293.25L406.91 293.03L406.46 293.22L405.74 295.32L404.61 298L402.34 298.38L398.55 298.44L393.53 299.02L392.96 299.21L392.14 303.7L391.95 304.19L375.76 302.3L375.66 294.69L373.99 292.76L373.11 292.61L370.92 293.78L369.88 294.87L364.5 307.06L363.95 307.25L361.31 307.48L357.91 307.57L358.39 305.34L358.05 303.85L357.49 302.8L355.37 301.13L345.54 295.43L337.06 290.83L331.68 288.52L328.52 287.61L326.48 287.66L326.03 288.03L325.15 288.12L324.58 286.73L323.18 281.58L321.1 277.23L319.53 275.65L315.99 273.75L313.6 272.2L311.45 269.88L310.06 267.82L306.72 261.12L305.67 261.2L292.12 264.41L288.45 265.33L287.89 265.61L266.97 236.94L279.82 229.84L273.08 217.69L274.34 201.92L302 149.71L286.56 145.53L280.71 135.04L323.07 126.79L343.52 123.18L347 123.86L350.01 124.22L359.71 125.27L365.64 125.65L368.04 126.07L382.22 127.16L395.86 127.83L396.06 127.68L396.91 127.64L407.43 122.47L414.43 119.41L418.81 117.22L420.87 116.71L421.95 116.6L423.62 116.67L424.45 116.99L425.21 117.57L426.2 118.71L431.93 131.33L433.95 133.24L437.55 136.98L448.43 146.66L449.93 152.73L456.57 174.12L469.14 168.2L469.49 199.5L469.44 206.71L468.86 206.53L466.44 205.3H466.19L466.09 211.9L465.18 213L464.88 229.64L464.95 231.79L489.09 234.71L492.57 274.41L500.4 274.99Z" fill="#ECECEC" stroke="black" stroke-width="0.1"/>
<path d="M423.26 383.37L424.43 382.56L425.23 382.18L426.62 381.81L429.22 381.41L429.75 381.2L430.15 380.77L430.84 380.93L448.39 381.46L449.88 381.28L451.19 380.73L452.62 379.66L452.81 379.39L452.85 379.06L457.16 379.94L460.46 383.75L463.23 388.4L463.32 389.89L463.54 390.1L464.26 390.35L467.34 391.13L468.87 391.09L471.08 389.71L474.35 388.04L481.9 386.17L482.53 386.33L483.7 387.08L485.35 388.52L486.99 389.67L487.68 390L487.98 389.99L491.62 388.43L492.44 387.47L493.54 385.69L494.37 384.74L495.18 384.46L496.37 384.4L504.94 385.93L505.57 386.6L506.06 387.92L505.95 389.18L505.49 390.88L505.55 391.46L505.88 391.94L506.81 392.47L508.7 392.62L512.58 392.38L513.4 392.17L513.82 391.69L513.93 391.34L513.86 389.56L514.29 389.08L515.17 389.03L519.63 390.3L522.19 391.39L526.03 392.58L527.68 392.9L528.68 392.67L529.06 394.25L530.45 396.66L531.18 397.41L532.14 397.94L533.9 398.31L534.52 398.72L535.37 399.01L536.17 399.03L537.2 398.81L538.28 399L539.3 399.47L539.95 401.14L540.52 401.37L542.11 401.45L542.39 401.74L542.38 402.31L542.03 402.82L541.82 405.32L542.26 406.58L542.39 408.63L542.78 409.19L541.98 410.01L541 410.59L537.01 410.82L536.15 411.08L535.64 411.33L534.97 411.9L534.52 412.74L534.46 413.14L535 416.28L536.02 418.38L536.4 418.84L536.55 419.36L536.68 423.56L535.34 427.86L534.8 427.68L533.39 426.25L532.39 425.93L530.96 425.86L529.82 426.19L529.37 426.53L528.78 427.17L527.97 428.47L526.78 430.69L517.89 439.57L517.17 442.92L517.01 444.44L516.64 445.84L516.19 446.71L513.77 449.14L511.94 450.42L508.4 452.27L496.82 464.37L496.39 465.62L495.35 469.89L495.62 470.79L493.23 468L492.18 467.33L490.7 466.72L487.51 466.37L484.88 467.19L484.31 467.25L483.05 466.92L481.82 465.85L479.03 464.21L477.2 462.14L475.91 459.81L475.44 459.51L473.54 459.4L470.04 458.37L469.41 457.97L468.91 457L467.74 456.6L466.87 456.47L466.11 455.67L465.64 455.5L464.27 455.57L463.44 455.3L462.54 454.7L460.63 452.74L459.73 452.5L458.66 452.51L457.69 452.78L456.96 454.18L456.4 454.11L456.26 454.21L456.1 454.85L455.73 455.02H455.2L450.52 454.06L440.59 450.14L438.64 449.02L432.23 444.89L430.38 443.4L427.68 440.88L420.07 433.28L419.49 432.89L416.76 431.64L413.26 430.31L410.32 428.94L408.59 427.68L407.98 427.02L399 421.47L396.28 419.57L390.74 414.44L389.55 413.13L395.16 406.9L413.28 400.26L413.56 399.65L413.33 399.14L412.51 397.97L411.68 397.09L410.97 395.89L410.82 395.03L411.17 394L415.57 389.29L416.14 389.18L419.49 386.96L423.26 383.37Z" fill="#ECECEC" stroke="black" stroke-width="0.1"/>
<path d="M159.43 23.7397L159.78 31.4597L157.77 37.2997L154.55 42.7397L151.73 48.7797L150.72 53.0097H148.51L146.7 53.2097L145.29 54.6197L144.69 57.2397L145.5 61.8697L146.71 64.4897L147.52 67.3097L145.1 68.1197L142.08 66.5097L139.66 67.9197L137.85 71.9497L135.43 76.1797L133.22 78.5997L130.2 76.7897L129.8 72.7597L129.6 66.5197L128.39 64.9097V61.4597H130L131.21 64.2797L133.02 65.2897L135.84 64.2797L137.25 61.2597V57.2297L138.26 54.0097L135.23 52.1997L132.01 49.5797L131.41 47.1597L133.22 45.1497L135.03 44.7497L137.04 45.7597L137.24 37.5097L140.06 37.1097L139.86 33.8897L137.44 33.2897L133.62 32.6897L132.21 33.6997L130.6 35.7097L128.39 36.7197L129.8 34.5097L132.62 29.2797L134.43 26.6597L133.42 23.6397L131.41 20.8197L132.01 16.9997L133.02 13.5797L136.42 7.14972L159.43 23.7397ZM121.11 0.339722L120.93 3.88972L119.32 7.10972L119.12 11.9397L115.3 15.3597L113.29 18.5797L113.09 24.4197L110.47 27.0397L109.26 32.6797L106.24 37.5097L104.23 42.9397L103.83 47.5697L104.03 53.6097L105.24 56.4297L107.25 60.0497L106.85 62.6697L103.83 71.1197L104.23 76.3497L106.44 81.5797L108.65 84.1997L111.67 85.6097L115.7 87.2197L118.72 87.4197L121.34 89.4297L123.35 90.0297L124.36 88.0197L125.97 87.6197L128.39 87.8197L130.2 87.0097L135.23 85.3997L137.85 84.1897L139.46 85.1997L140.27 88.8197L138.46 91.0297L135.63 92.8597L136.64 96.4797L138.85 97.4897L140.66 99.2997L145.89 100.11L148.51 102.32L151.53 102.72L157.57 103.32L162 103.52L165.62 101.31L168.04 102.72L169.25 103.73L173.07 102.92L175.08 102.32L178.7 103.53L183.73 102.52L188.56 100.91L195.61 98.0897L196.21 95.4697H199.63L200.84 93.6597L199.84 91.8597L201.45 88.4397L207.69 83.4097L212.32 78.7797L215.14 73.7497L215.95 69.9297L214.94 68.5197L213.33 67.1097L212.32 65.0997L216.2 64.7497L237.88 80.3997L240.09 87.4497L246.16 93.5797L252.55 101.29L252.84 101.93L253.48 102.52L256.01 105.53L261.71 112.54L278.54 133.44L280.17 135L280.72 135.05L286.57 145.55L302 149.73L274.34 201.93L273.08 217.7L279.82 229.85L266.97 236.95L287.89 265.62L301.68 284.8L290.74 289.86L288.19 291.07L287.54 290.88L287.27 290.66L282.71 283.25L281.21 280.48L273.21 271.67L270.13 269.76L266.61 267.9L257.66 265.84L254.62 265.82L254 266.02L252.61 266.79L251.83 267.68L250.66 269.98L250.15 271.85L249.43 272.62H247.94L245.69 271.18L245.44 270.02L245.07 269.15L243.05 266.88L242.34 266.27L241.6 265.98L239.44 265.62L238.03 265.04L232.07 260.5L223.84 253.19L222.27 251.69L218.92 247.79L213.75 242.96L213.06 242.65L212.39 242L212.02 241.54L208.94 236.15L208.53 233.69L208.49 231.06L208.32 230.48L207.93 230L202.65 228.88L198.39 230.27L196.49 231.11L193.82 236.34L193.6 235.81L193.1 235.21L192.55 234.82L190.13 233.99L189.32 233.48L187.54 231.29L187.37 231.33L187.04 230.98L186.16 231.18L184.9 229.94L184.71 229.13L184.9 228.79L185.46 228.34L188.28 228.14L188.63 227.69L188.43 226.89L187.92 226.16L187.51 225.19L187.29 224.25L187.13 221.98L185.87 220.34L185.84 219.67L186.02 219.19L187.11 218.61L187.53 218.8L188.38 218.9L188.84 218.79L189.29 218.36L189.54 217.97L189.56 217.33L189.07 216.14L188.59 215.58L187.6 214.98L185.85 214.74L185.27 214.5L184.45 213.79L183.62 212.67L182.94 211.31L182.31 210.75L180.34 210.11L179.3 209.27L178.99 209.82L178.53 211.25L178.17 211.6L177.67 211.61L175.87 211.06L175.19 210.71L174.73 210.73L174.19 210.52L172.22 210.48L170.65 210.85H169.14L167.8 211.01L160.39 211.11L159.82 210.66L159.09 209.26L158.44 208.96L157.56 207.9L153.52 203.87L153.48 203.47L153.94 202.23L153.83 201L150.42 196.55L149.95 196.09L148.84 195.43L148.44 195.37L147.35 195.67L146.39 196.44L145.82 196.68L143.22 196.51L142.52 196.29L140.94 195.43L138.67 194.77L138 194.45L136.27 192.95L132.08 188.35L127.27 183L124.19 179.1L123.71 178.67L123.68 179.52L123.37 180.7L123.47 181.25L124.36 182.14L124.4 182.43L124.23 182.95L123.89 183.17L123.47 183.16L122.92 182.85H122.29L121.78 183.48V183.65L122.47 184.22L122.73 184.64L122.31 186.82L122 187.31L121.51 187.61L120.36 187.24L117.71 187.74L116.64 187.8L115.32 187.16L114.11 186.92L112.92 186.35L111.43 185.94L108.53 185.34L107.63 185.37L106.21 185.94L105.17 186.54L102.84 188.48L102.22 188.54L101.81 188.89L101.63 189.58L101.95 190.34L103.81 191.69L106.18 193.02L107.17 193.4L108.52 193.65L108.97 194.19L111.64 200.39L112.94 202.44L113.51 203.12L113.7 204.06L113.66 205.27L114.1 205.67L114.63 205.54L117.78 207.52L118.74 208.31L118.87 209.02L118.36 210.06L117.99 210.32L117.56 210.34L115.45 209.84L113.58 210.22L113.39 209.55L113.51 207.53L113.4 206.48L112.59 203.62L111.88 202.28L110.99 201.29L109.74 200.45L104.89 199.2L104.09 199.25L101.91 200.38L100.61 200.86L100.42 200.76L100.23 200.04L99.3101 199.39L99.0201 199.02L98.7501 197.82L97.9001 197.07L96.9401 196.89L95.5101 197.2L94.5201 197.88L93.9901 197.87L93.7201 198.16L93.3201 199.99L93.0301 200.74L92.7101 200.61L91.9701 199.75L91.5301 199.64L90.8601 199.86L90.6401 200.25L90.3601 201.8L90.7001 202.58L91.5901 203.4L92.0301 204.12L92.3601 205.2L92.3401 205.74L91.9701 206.79L92.0001 208.2L91.7601 209.31L91.8801 210.86L91.6801 212.47L91.5001 213.07L91.1601 213.46L90.6901 213.62L89.8401 213.59L88.1801 212.9L87.7401 213L87.4601 213.52L87.1201 214.72L87.8201 215.92L88.2601 217.02L88.0701 217.44L87.2001 217.56L84.1401 217.04L81.5501 217.93L79.7801 218.86L79.0401 219.04L78.4401 219.02L76.8201 218.03L74.9501 217.66L72.6601 217.48L67.4901 217.76L65.5301 218.49L63.0101 219.73L60.8201 221.33L59.5601 222.42L58.4401 224.03L58.0301 224.9L57.3501 226.49L56.2801 229.82L55.6701 230.67L54.5401 231.77L53.8301 232.2L52.4601 232.71L50.3001 233.35L49.5701 233.79L48.7101 234.58L47.7901 236.5L47.4801 238.54L47.0301 240.37L47.0801 243.12L47.3801 245.8L47.2401 248.53L47.8001 250.9L48.2001 251.89L48.5801 252.39L48.5601 252.63L48.9201 252.79L49.4501 253.82L49.6901 254.97L49.7801 255.77L49.5801 256.99V259.33L50.0001 262.47L50.3001 263.46L50.6801 264.18L52.5301 266.82L53.4401 266.84L55.3901 266.24L55.8201 266.64L55.8601 267.16L55.5401 267.87L55.1401 268.27L54.6101 268.6L52.6301 269.29L51.7901 270.08L51.3301 270.96L51.2901 272.46L50.9701 273.13L50.4801 273.67L49.9301 273.96H48.6101L46.8101 273.52L42.8501 273.18L38.7001 272.59L31.9501 272.17L28.1801 272.09L22.3001 271.41L18.8101 271.15L16.9301 271.16L11.7501 270.69L2.33006 270.3L2.25006 37.7397L3.77006 37.3497L5.20006 36.7197L35.3401 26.8697L35.3601 26.7397L37.0301 26.4497L37.3701 26.0997L38.3801 25.7597L51.5201 21.5597L95.1801 8.05972L101.83 5.83972L104.05 5.37972L121.11 0.339722Z" fill="#ECECEC" stroke="black" stroke-width="0.1"/>
<path d="M534.92 390.84L534.81 391.14L533.21 390.83L532.24 391.04L528.91 392.19L528.68 392.48V392.67L527.68 392.9L526.03 392.58L522.19 391.39L519.63 390.3L515.17 389.03L514.29 389.08L513.86 389.56L513.93 391.34L513.82 391.69L513.4 392.17L512.58 392.38L508.7 392.62L506.81 392.47L505.88 391.94L505.55 391.46L505.49 390.88L505.95 389.18L506.06 387.92L505.57 386.6L504.94 385.93L496.37 384.4L495.18 384.46L494.37 384.74L493.54 385.69L492.44 387.47L491.62 388.43L487.98 389.99L487.68 390L486.99 389.67L485.35 388.52L483.7 387.08L482.53 386.33L481.9 386.17L474.35 388.04L471.08 389.71L468.87 391.09L467.34 391.13L464.26 390.35L463.54 390.1L463.32 389.89L463.23 388.4L460.46 383.75L457.16 379.94L452.85 379.06L452.81 379.39L452.62 379.66L451.19 380.73L449.88 381.28L448.39 381.46L430.84 380.93L430.15 380.77L428.03 376.97L427.22 375.16L427.05 374.35L427.09 373.72L428.26 371.38L428.77 369.92L428.94 368.95L427.59 363.73L426.65 362.28L425.68 361.47L424.2 359.94L423.87 359.17L423.95 358.8L424.45 358.45L433.1 355.53L434.1 356.02L436.95 356.9L437.54 356.89L438.06 356.59L438.77 355.3L440.6 349.76L441.02 343.96L440.97 342.99L441.13 342.29L441.48 341.72L442 341.44L443.01 341.61L448.49 343.68L449.49 345.23L449.95 346.27L452.04 347.41L457.42 349.71L458.64 349.91L467.55 347.98L469.18 347.22L472.67 343.93L473.1 343.31L473.24 342.19L473.06 341.74L472.24 341.67L470.81 342.59L470.01 342.49L469.81 341.51L472.11 335.44L472.97 334.1L473.85 327.98L474.02 325.71L473.65 324.99L473.11 324.79L472.86 324.44L473.45 319.53L475.6 314.85L476.51 313.77L477.62 313.58L478.81 313.67L479.84 315.22L480.88 316.01L482.71 316.26L484.09 316.15L486.44 314.86L488.55 312.94L489.13 313.21L490.1 314.33L491.96 316.99L493.22 320.46L501.01 321.38L505.62 321.48L506.58 323.66L506.59 324.76L505.76 326.59L505.62 327.36L505.72 331.29L506.56 335.39L508.42 337.05L509.86 339.86L509.79 340.67L509.34 342.01L509.1 342.17L507.86 342.46L507.76 342.81L508.11 346.52L513.94 350.45L516.06 351.25L520.87 351.65L532.74 354.18L532.95 354.42L534.02 360.38L534.1 361.4L532.8 361.55L531.26 361.93L529.1 362.96L528.41 363.5L527.65 364.41L524.43 369.65L524.33 370.02L524.35 374.18L524.56 375.13L525.21 376.09L526.24 377.14L530.77 380.96L533 385.63L533.83 387.93L534.77 389.88L534.98 390.69L534.92 390.84Z" fill="#ECECEC" stroke="black" stroke-width="0.1"/>
<path d="M598.13 337.8L596.52 338.77L595.23 339.1L592.84 338.43L591.86 338.87L586.42 340.61L587.43 334.2L587.12 333.52L579.99 335.16L577.71 335.95L573.69 336.77L569.12 336.94L562.57 336.63L562.25 336.58L561.59 335.61L561.25 334.71L561.1 333.75L561.3 332.23L566.25 321.19L567.02 319.19L567.17 318.42L567.01 318.22L566.68 318.32L564.57 319.34L564.41 319.07L564.89 314.18L566.99 313.64L568.85 313.74L569.19 313.13L569.36 310.29L573.01 313.4L574.9 312.9L576.81 314.47L576.27 315.61L581.14 317.04L581.95 315.92L584.35 316.1L588.66 314.37L587.82 312.28L585.41 310.99L584.28 307.7L581 303.17L581.87 295.72L580.87 293.19L581.73 292.29L580.85 290.9L577.23 290.67L577.22 289.37L582.14 289.68L582.46 290.28L584.82 288.81L584.8 289.05L585.11 289.14L585.31 290.34L585.98 290.59L586.78 290.22L587.72 290.43L588.09 290.81L587.95 291.14L586.51 291.69L586.32 292.04L586.29 292.6L586.83 293.66L587.23 293.33L592.09 298.85L595.56 302.32L600.48 306.76L605.19 310.67L605.81 310.75L608.84 314.98L608.34 319.68L607.48 325L606.47 329.96L606.49 331.02L606.63 331.64L607.13 332.69L606.88 337.42L605.77 337.07L603.2 337.05L599.84 337.4L598.13 337.8Z" fill="#ECECEC" stroke="black" stroke-width="0.1"/>
<path d="M575.27 459.47L574.24 463L574.1 464.23L571.8 466.65L570.16 469.75L570.23 471.32L569.76 472.43L569.85 473.22L569.5 474.11L567 475.28L562.95 475.98L562.14 477.42L558.98 484.17L557.83 485.83L556.46 486.81L554.17 489.78L553.12 492.21L551.85 494.64L550.26 496.17L549.07 500.05L549.02 502.61L549.28 506.62L548.72 513.28L548.01 515.71L547.33 516.15L546.74 515.04L545.24 513.84L544.5 513.62L543.12 513.77L542.7 513.71L541.84 512.95L540.84 512.36L540.23 512.45L538.86 513L538.19 513.54L537.8 514.04L537.1 514.13L536.68 513.48L536.26 512.11L535.52 511.39L534.7 510.99L534.03 511.13L533.46 511.51L531.59 513.23L530.24 513.69L529.09 514.37L527.83 514.48L525.99 514.95L525.03 515.98L523.53 516.61L522.99 516.41L522.13 515.64L521.96 514.11L521.68 513.62L520.91 513.25L520.54 512.38L520.27 512.11L519.3 511.73L518.85 511.39L518.15 511.54L517.69 511.42L516.17 510.57L515.71 509.86L516.07 508.33L515.75 507.49L514.02 506.63L512.66 505.22L512.23 504.96L510.3 504.24L508.42 504.37L504.84 505.96L503.26 505.77L502.44 505.84L500.21 506.6L498.26 506.11L497.31 506.12L496.21 506.49L494.61 506.12L493.16 506.35L491.99 506.23L490.2 506.3L488.89 506.84L488.49 504.83L488.66 504.17L489.09 503.55L489.95 502.92L491.08 502.34L494.12 501.43L494.42 500.7L494.43 499.95L494 498.85L489.44 493.31L489.18 491.82L489.74 486.2L489.45 484.67V484.07L489.9 480.96L490.64 479.17L491.37 478.05L492.14 477.29L492.68 476.02L493.24 475.29L495.52 473.96L495.95 473.56L496.19 472.73L496.16 471.84L495.62 470.79L495.35 469.89L496.39 465.62L496.82 464.37L508.4 452.27L511.94 450.42L513.77 449.14L516.19 446.71L516.64 445.84L517.01 444.44L517.17 442.92L517.89 439.57L526.78 430.69L527.97 428.47L528.78 427.17L529.37 426.53L529.82 426.19L530.96 425.86L532.39 425.93L533.39 426.25L534.8 427.68L535.34 427.86L536.68 423.56L536.55 419.36L536.4 418.84L536.02 418.38L535 416.28L534.46 413.14L534.52 412.74L534.97 411.9L535.64 411.33L536.15 411.08L537.01 410.82L541 410.59L541.98 410.01L542.78 409.19L543.17 409.72L543.85 410.01L544.76 409.69L545.38 409.93L546.42 409.21L548.47 409.02L549.82 409.84L551.29 409.98L552.34 408.63L554.39 408.56L555.43 408.01L555.88 408.02L556.99 409.18L558.01 409.43L559.85 408.44L561.1 408.58L562.34 409.4L563.21 411.24L563.52 412.27L566.21 414.37L566.3 415.17L566.16 416.41L565.81 416.63L566.11 418.79L564.85 419.44L564.26 420.34L563.23 420.66L560.73 421.06L560.38 421.62L562.91 425.3L562.55 425.97L560.96 426.16L559.69 427.38L560.11 428.86L560.98 430.8L560.97 431.25L560.5 431.81L560.17 437.12L562.59 440.33L563.59 441.14L563.22 442.26L562.29 443.71L562.04 444.72L562.49 444.73L563.97 444.08L564.43 444.09L566.1 445.03L567.51 447.43L567.72 448.22L567.8 449.58L568.02 449.81L569.36 450.29L570.81 451L571.81 451.69L573.78 454.22L573.8 454.6L574.52 455.92L575.61 457.41L575.6 458.2L575.27 459.47Z" fill="#ECECEC" stroke="black" stroke-width="0.1"/>
<path d="M618.94 266.49L618.99 265.92L618.9 265.78H618.66L618.36 266.03L618.23 266.4L617.48 266.63L616.77 267.38L616.07 267.31L615.71 267.97L615.16 267.7L614.59 267.81L612.99 266.97L612.79 266.99L612.53 267.33L611.71 267.7L610.68 267.49L610.57 267.31H610.43L609.23 268.63L609.13 269.48L608.68 270.73L608.54 271.6L608.42 273.06L608.51 273.4L609.44 273.62L609.73 273.83L610.06 273.65L610.54 273.9L610.86 274.74L611.02 274.79L611.38 274.56L611.55 274.81L612.24 274.94L612.81 274.88L612.82 274.4L613.9 273.53L614.99 273.62L615.71 273.85L615.55 274.26L615.98 275.2L616.35 275.45L616.98 275.36L618.03 274.31L618.41 273.44L618.34 272.26L617.96 271.53L617.67 271.26L618.15 270.5L618.49 270.25L618.36 269.91L618.41 269.43L618.7 268.75L618.85 268.63L619.25 268.68L619.16 268.02L619.44 267.75L619.56 267.27L619.45 266.95L619.21 266.81L618.94 266.49Z" fill="#ECECEC"/>
<path d="M707.74 216.13L707.59 215.75L706.94 215.24L706.15 214.86L702.82 211.86L701.88 211.32L700.13 211.11L698.91 210.41L698.45 210.39L697.59 210.6L696.45 211.1L695.2 212.26L694.52 212.29L693.58 211.95L693.16 211.99L691.39 214.23L690.37 214.92L689.41 215.35L688.23 216.24L687.53 216.26L686.47 215.25L685.95 215.41L685.37 215.97L684.7 216.7L683.86 218.08L683.04 218.74L682.49 219.64L681.51 220.42L680.76 221.51L680.61 222.77L679.7 224.57L678.6 227.56L678.65 227.76L678.43 228.24L677.69 228.5L677.27 228.48L676.04 227.35L675.29 227.14L675.14 226.51L675.25 224.9L674.7 223.99L672.16 222.6L669.47 220.23L669.1 220.07L668.41 220.21L668.04 220.67L667.74 222.79L667.52 223.16L666.55 224.03L666.25 224.72L664.67 225.68L664.36 226.18L664.49 227.35L664.83 228.74L664.75 229.82L663.71 230.56L662.75 230.87L662.26 231.42L661.72 231.4L660.56 231.95L659.67 233.25L658.6 234.15L658.16 234.91L657.42 236.92L656.83 237.93L653.64 239.53L652.3 240.49L651.57 242.63L651.25 242.93L650.92 243.05L650.56 242.93L650.4 242.64L650.45 242.08L650.07 241.41L649.68 241.34L649 241.54L648.74 241.85L647.09 245.84L644.16 247.04L642.96 246L642.22 245.67H641.72L640.05 246.72L638.01 247.05L637.76 246.92L636.92 247.05L636.61 247.25L636.41 247.69L635.88 248.22L635.2 248.55L632.46 249.2L631.94 249.43L630.72 250.57L630.43 251.08L629.48 251.79L628.18 253.18L627.78 253.72L627.28 255.28L627.05 255.56L626.31 255.94L625.09 256.29L624.71 256.23L624.38 256.35L622.7 257.78L622.03 258.88L622.05 259.4L622.38 259.94L623.55 260.7L623.21 261.71L622.8 261.92L620.59 261.57L620.06 261.8L619.23 261.84L617.92 262.19L617.45 262.17L616.45 261.59L615.89 261.45L614.79 261.58L614.43 261.46L612.93 261.78L611.78 262.47L611.14 264.37L610.7 264.87L608.47 266.13L607.33 268.97L606.67 269.43L606.16 269.37L605.57 268.79L605.28 268.67L604.77 268.83L602.79 271.9L602.6 274.61L602.37 274.98L600.98 276.15L600.68 277.95L600.47 278.09L599.62 277.94L598.94 278.4L598.29 279.26L596.88 280.63L595.35 282.65L594.61 283.8L594.13 284.9L592.47 286.99L591.75 288.66L591.6 290.17L591.43 290.52L590.1 291.73L588.27 292.45L587.23 293.31L592.09 298.83L595.56 302.3L600.48 306.74L605.19 310.65L605.81 310.73L608.84 314.96L608.34 319.66L607.48 324.98L606.47 329.94L606.48 331L606.62 331.62L607.12 332.68L606.87 337.41L609.42 337.63L610.06 337.58L611.11 337.95L612.2 337.86L612.97 337.61L614.27 337.92L616.23 337.96L617.35 338.58L617.83 338.18L616.99 336.06L616.58 335.64L615.2 335.37L614.79 334.95L615.03 334.1L614.68 333.52L614.86 332.9L616.61 333.14L617.44 333.08L618.57 332.01L618.58 331.1L618.91 330.55L618.89 329.34L617.85 328.51L617.43 328.01L617.44 327.18L617.15 326.37L616.75 326.02L616.99 325.17L616.52 324.98L615.91 322.91L615.49 322.41L615.5 321.58L615.85 321.17L615.89 320.41L615.23 319.84L613.89 317.99L613.82 317.66L614.09 317.02L615.65 315.97L617.47 315.73L618.34 315.9L618.64 315.82L618.9 315.55L618.87 315.37L619.27 314.62L619.75 314.39L620.01 313.12L619.45 311.89L619.11 310.76L619.32 307.25L619.38 306.93L619.71 306.54L619.91 305.59L621.75 303L623.39 302.8L624.05 303.13L626.58 303.83L627.79 303.98L628.54 304.72L629.39 306.43L629.64 307.62L630.19 308.4L631.45 309.3L632.18 310.18L632.87 310.29L633.27 310.5L633.77 311.8L634.07 312.21L634.73 312.36L636.35 312.25L637.28 311.66L638.68 308.64L639.13 308.24L639.84 308.03L641.27 308.44L641.57 308.41L642.51 307.4L643.62 306.74L644.05 306.73L645.64 307.71L645.85 307.72L647.03 306.6L647.79 306.11L649.82 305.82L650.65 305.46L651.71 304.56L653.14 304L655.52 301.68L655.83 301.24L656.11 300.37L656.6 299.78L657.19 299.67L658.22 300.08L659.36 300.26L660.82 299.32L661.7 298.93L662.42 297.91L664.06 296.92L665.26 296.89L665.94 296.66L666.31 296.3L666.82 295.29L666.83 294.93L666.54 294L666.69 293.28L667.37 292.46L667.4 291.7L667.7 291.17L667.42 289.89L667.53 289.43L667.91 289.15L668.31 288.21L668.86 287.61L670.16 287.09L671.19 287.34L670.99 286.92L671.14 286.04L671.11 284.29L670.87 281.96L670.21 280.62L668.3 278L667.63 270.7L670.6 266.59L671.28 264.66L670.79 263.65L670.31 263.09L669.46 262.53L668.25 261.08L667.08 260.96L666.58 260.44L665.95 258.97L665.55 258.7L664.24 258.14L663.17 257.96L662.2 258.02L661.68 258.3L660.86 258.4L659.92 258.16L658.67 258.25L658.04 257.88L657.88 257.51L657.71 256.27L657.79 254.3L658.07 253.56L658.48 252.98L659.75 252.44L660.44 252.32L661.72 252.43L663.38 250.89L664.68 250.94L665.53 250.54L667.04 249.08L667.62 248.18L667.92 247.95L669.99 246.82L670.53 246.66L672.19 245.53L672.86 244.19L672.95 241.98L673.19 241.49L673.81 240.9L675.05 240.34L677.22 238.82L677.55 237.61L678.67 236.81L679.04 236.39L679.78 234.86L680.83 233.78L682.02 233.21L682.67 233.16L683.55 233.48L683.96 233.47L684.13 233.28L684.3 232.46L684.52 232.26L685.2 232.72L686.24 233.08L687.12 233.09L687.55 232.94L688.44 232.04L688.74 231.53L688.9 229.71L687.99 228.13L688.33 227.23L688.98 226.57L689.1 225.84L689.27 225.55L689.87 225.26H690.67L692.54 226.3L693.35 226.5H694.12L695.17 225.98L696.46 224.88L697.14 224.58L698.9 222.77L699.71 222.46L702.39 219.9L703.47 219.49L704.29 219.46L705.56 219.77L705.96 219.15L706.66 218.61L707.11 218.43L707.31 218.15L707.41 216.58L707.74 216.13ZM621.52 267.56L621.16 268.02L621.25 268.68L620.86 268.63L620.7 268.74L620.41 269.42L620.36 269.9L620.5 270.24L620.16 270.49L619.68 271.24L620.25 271.99L620.42 272.54V273.43L620.27 273.98L619.32 275.12L618.99 275.35L618.35 275.44L617.99 275.19L617.56 274.26L617.72 273.85L617 273.62L615.92 273.53L614.84 274.4L614.82 274.88L614.25 274.95L613.56 274.81L613.39 274.56L613.03 274.79L612.87 274.74L612.54 273.9L612.06 273.65L611.73 273.83L611.44 273.62L610.51 273.39L610.42 273.05L610.54 271.59L610.68 270.72L611.13 269.47L611.23 268.63L612.43 267.31H612.57L612.67 267.49L613.7 267.7L614.53 267.33L614.79 266.99L615 266.97L616.6 267.81L617.17 267.7L617.72 267.97L618.08 267.31L618.79 267.38L619.49 266.63L620.09 266.52L620.47 265.9L620.92 265.79L620.96 266.5L621.47 266.96L621.52 267.56Z" fill="#ECECEC" stroke="black" stroke-width="0.1"/>
<path d="M284.54 312.33L283.28 309.47L282.76 308.72L282.07 308.11L281.77 307.3L281.61 304.53L281.15 303.79L280.89 302.76L279.67 300.72L279.58 299.5L279.74 298.32L279.67 296.34L279.52 295.86L279.27 293.01L279.5 291.39L279.28 290.99L278.77 290.78L278.59 290.06L278.61 289.42L278.32 288.61L277.58 287.67L276.11 286.89L275.54 286.78L275.09 286.52L274.79 285.96L274.98 285.02L274.61 283.97L274.14 283.1L272.92 282.37L271.04 280.39L269.91 280.05L268.42 279.04L266.39 276.63L265.91 276.33L264.64 276.2L263.98 275.97L263.49 275.63L263.08 275.25L262.8 274.3L262.42 273.58L261.57 272.94L261.1 272.93L259.8 273.5L258.03 273.36L257.29 273.14L255.68 272.24L253.92 271.95L253.4 271.99L252.93 272.3L252.11 273.77L252.17 276.42L251.72 277.22L251.44 278.79L251.01 279.7L250.66 280.09L250.17 280.42L249.12 280.58L248.97 280.72L247.3 280.91L246.97 280.81L245.65 280.86L245.45 280.73L245.17 280.83L244.47 280.67L241.37 279.19L239.24 276.96L238.9 276.81L236.89 276.99L235.57 275.43L230.66 275.21L230.24 275.42L229.2 275.35L227.02 275.67L224.44 275.55L222.76 275.86L218.83 275.87L214.07 276.17L213.19 276.12L210.59 276.55L209.64 276.49L208.92 276.25L205.68 274.31L202.77 271.71L196.66 267.54L193.29 265.61L192.13 264.57L191.56 263.33L191.54 262.64L191.7 261.85L191.74 258.86L192.02 257L192.4 256.19L194.54 254.19L194.79 253.58V252.41L194.52 251.52L193.39 249.5L192.24 247.97L190.39 245.08L190.01 243.58L190.53 242.34L191.09 240.09L191.33 239.95L191.64 239.97L192.54 240.46L193.54 240.44L195.52 241.16L196.63 241.69L197.91 242.74L199.1 242.71L199.88 243.34L200.7 243.61L200.96 243.21L201.69 243.22L201.95 243.06L201.98 242.62L201.46 241.92L200.33 241.03L199.17 239.71L197.92 239.14L196.27 238.77L194.88 237.9L194.12 237.05L193.81 236.33L196.48 231.1L198.38 230.25L202.64 228.86L207.92 229.98L208.31 230.46L208.47 231.04L208.51 233.68L208.92 236.13L212 241.52L212.38 241.99L213.04 242.64L213.74 242.95L218.91 247.78L222.26 251.68L223.83 253.19L232.06 260.5L238.02 265.04L239.43 265.62L241.59 265.98L242.33 266.27L243.04 266.88L245.05 269.15L245.42 270.02L245.68 271.18L247.93 272.62H249.42L250.14 271.86L250.65 269.98L251.82 267.68L252.6 266.8L253.99 266.03L254.61 265.83L257.65 265.84L266.6 267.9L270.12 269.76L273.2 271.67L281.2 280.48L282.7 283.25L287.26 290.66L287.53 290.88L288.18 291.07L290.73 289.85L293.97 293.18L299.88 299.86L300.56 301.01L300.53 302.55L299.74 306.35L295.15 311.48L288.87 319.09L284.54 312.33Z" fill="#ECECEC" stroke="black" stroke-width="0.1"/>
<path d="M164 200.5C166.18 200.5 167.947 198.709 167.947 196.5C167.947 194.291 166.18 192.5 164 192.5C161.82 192.5 160.053 194.291 160.053 196.5C160.053 198.709 161.82 200.5 164 200.5Z" fill="#FFDA00"/>
<path d="M164 202C166.997 202 169.427 199.538 169.427 196.5C169.427 193.462 166.997 191 164 191C161.003 191 158.573 193.462 158.573 196.5C158.573 199.538 161.003 202 164 202Z" stroke="black" stroke-width="3" stroke-linejoin="round"/>
<path d="M154.66 186H153.812V183.042H150.586V186H149.743V179.602H150.586V182.353H153.812V179.602H154.66V186ZM158.356 183.315L159.828 179.602H160.808L158.545 184.932C158.393 185.272 158.25 185.514 158.119 185.657C157.987 185.798 157.832 185.906 157.653 185.982C157.477 186.056 157.256 186.092 156.989 186.092C156.758 186.092 156.61 186.079 156.545 186.053L156.572 185.385L156.972 185.402C157.279 185.402 157.508 185.254 157.657 184.958L157.767 184.73L157.934 184.339L155.754 179.602H156.699L158.356 183.315ZM163.48 183.126H162.702V186H161.858V179.602H162.702V182.423H163.361L165.598 179.602H166.648L164.205 182.704L166.829 186H165.796L163.48 183.126ZM169.799 183.315L171.271 179.602H172.251L169.988 184.932C169.836 185.272 169.694 185.514 169.562 185.657C169.43 185.798 169.275 185.906 169.096 185.982C168.92 186.056 168.699 186.092 168.433 186.092C168.201 186.092 168.053 186.079 167.989 186.053L168.015 185.385L168.415 185.402C168.723 185.402 168.951 185.254 169.101 184.958L169.21 184.73L169.377 184.339L167.198 179.602H168.143L169.799 183.315ZM177.863 183.97C177.784 184.646 177.534 185.169 177.112 185.539C176.693 185.905 176.135 186.088 175.438 186.088C174.682 186.088 174.075 185.817 173.618 185.275C173.164 184.733 172.937 184.008 172.937 183.1V182.484C172.937 181.89 173.042 181.367 173.253 180.916C173.467 180.464 173.769 180.119 174.159 179.878C174.548 179.635 175 179.514 175.512 179.514C176.192 179.514 176.737 179.704 177.147 180.085C177.557 180.463 177.796 180.987 177.863 181.658H177.015C176.942 181.148 176.782 180.779 176.536 180.551C176.293 180.322 175.952 180.208 175.512 180.208C174.973 180.208 174.55 180.407 174.242 180.806C173.938 181.204 173.785 181.771 173.785 182.506V183.126C173.785 183.82 173.93 184.373 174.22 184.783C174.51 185.193 174.916 185.398 175.438 185.398C175.906 185.398 176.265 185.292 176.514 185.082C176.766 184.868 176.933 184.497 177.015 183.97H177.863Z" fill="#4E4E4E"/>
<path d="M210 257.5C212.18 257.5 213.947 255.709 213.947 253.5C213.947 251.291 212.18 249.5 210 249.5C207.82 249.5 206.053 251.291 206.053 253.5C206.053 255.709 207.82 257.5 210 257.5Z" fill="#FFDA00"/>
<path d="M210 259C212.997 259 215.427 256.538 215.427 253.5C215.427 250.462 212.997 248 210 248C207.003 248 204.573 250.462 204.573 253.5C204.573 256.538 207.003 259 210 259Z" stroke="black" stroke-width="3" stroke-linejoin="round"/>
<path d="M195.94 268.315L197.412 264.602H198.392L196.129 269.932C195.977 270.272 195.834 270.514 195.703 270.657C195.571 270.798 195.416 270.906 195.237 270.982C195.061 271.056 194.84 271.092 194.573 271.092C194.342 271.092 194.194 271.079 194.129 271.053L194.156 270.385L194.556 270.402C194.863 270.402 195.092 270.254 195.241 269.958L195.351 269.73L195.518 269.339L193.338 264.602H194.283L195.94 268.315ZM200.247 268.495V271H199.403V264.602H201.763C202.463 264.602 203.011 264.78 203.406 265.138C203.805 265.495 204.004 265.968 204.004 266.557C204.004 267.178 203.809 267.657 203.419 267.994C203.033 268.328 202.478 268.495 201.754 268.495H200.247ZM200.247 267.805H201.763C202.214 267.805 202.56 267.7 202.8 267.489C203.04 267.275 203.16 266.967 203.16 266.566C203.16 266.185 203.04 265.88 202.8 265.652C202.56 265.423 202.23 265.305 201.811 265.296H200.247V267.805ZM209.049 265.296H205.964V271H205.116V264.602H209.049V265.296ZM213.707 268.042H210.934V270.31H214.155V271H210.09V264.602H214.111V265.296H210.934V267.353H213.707V268.042ZM220.123 271H219.275V268.042H216.049V271H215.206V264.602H216.049V267.353H219.275V264.602H220.123V271ZM226.135 264.602V271H225.287V268.35C224.979 268.438 224.699 268.5 224.447 268.535C224.195 268.567 223.908 268.583 223.586 268.583C222.856 268.583 222.314 268.425 221.96 268.108C221.605 267.792 221.424 267.307 221.415 266.654V264.602H222.263V266.632C222.266 267.077 222.367 267.398 222.566 267.594C222.769 267.791 223.108 267.889 223.586 267.889C224.143 267.889 224.709 267.81 225.287 267.651V264.602H226.135Z" fill="#4E4E4E"/>
<path d="M388 367.5C390.18 367.5 391.947 365.709 391.947 363.5C391.947 361.291 390.18 359.5 388 359.5C385.82 359.5 384.053 361.291 384.053 363.5C384.053 365.709 385.82 367.5 388 367.5Z" fill="#FFDA00"/>
<path d="M388 369C390.997 369 393.427 366.538 393.427 363.5C393.427 360.462 390.997 358 388 358C385.003 358 382.573 360.462 382.573 363.5C382.573 366.538 385.003 369 388 369Z" stroke="black" stroke-width="3" stroke-linejoin="round"/>
<path d="M375.645 375.296H372.56V377.212H374.151C374.819 377.221 375.34 377.392 375.715 377.726C376.09 378.06 376.278 378.514 376.278 379.088C376.278 379.666 376.089 380.125 375.711 380.468C375.333 380.811 374.817 380.988 374.164 381H371.712V374.602H375.645V375.296ZM372.56 377.906V380.31H374.103C374.521 380.31 374.847 380.199 375.078 379.976C375.312 379.753 375.43 379.455 375.43 379.08C375.43 378.719 375.317 378.435 375.091 378.227C374.869 378.019 374.551 377.912 374.138 377.906H372.56ZM379.539 378.315L381.011 374.602H381.991L379.728 379.932C379.575 380.272 379.433 380.514 379.301 380.657C379.169 380.798 379.014 380.906 378.835 380.982C378.66 381.056 378.438 381.092 378.172 381.092C377.94 381.092 377.792 381.079 377.728 381.053L377.754 380.385L378.154 380.402C378.462 380.402 378.69 380.254 378.84 379.958L378.95 379.73L379.117 379.339L376.937 374.602H377.882L379.539 378.315ZM385.089 377.054L386.623 374.602H387.616L385.594 377.774L387.664 381H386.662L385.089 378.504L383.507 381H382.509L384.583 377.774L382.558 374.602H383.546L385.089 377.054ZM392.177 379.33H389.497L388.895 381H388.024L390.468 374.602H391.206L393.654 381H392.788L392.177 379.33ZM389.751 378.636H391.927L390.837 375.643L389.751 378.636ZM395.359 378.495V381H394.515V374.602H396.875C397.575 374.602 398.123 374.78 398.519 375.138C398.917 375.495 399.116 375.968 399.116 376.557C399.116 377.178 398.921 377.657 398.532 377.994C398.145 378.328 397.59 378.495 396.866 378.495H395.359ZM395.359 377.805H396.875C397.326 377.805 397.672 377.7 397.912 377.489C398.152 377.275 398.272 376.967 398.272 376.566C398.272 376.185 398.152 375.88 397.912 375.652C397.672 375.423 397.342 375.305 396.923 375.296H395.359V377.805ZM403.12 379.33H400.439L399.837 381H398.967L401.41 374.602H402.148L404.596 381H403.73L403.12 379.33ZM400.694 378.636H402.869L401.779 375.643L400.694 378.636Z" fill="#4E4E4E"/>
<path d="M432 348.5C434.18 348.5 435.947 346.709 435.947 344.5C435.947 342.291 434.18 340.5 432 340.5C429.82 340.5 428.053 342.291 428.053 344.5C428.053 346.709 429.82 348.5 432 348.5Z" fill="#FFDA00"/>
<path d="M432 350C434.997 350 437.427 347.538 437.427 344.5C437.427 341.462 434.997 339 432 339C429.003 339 426.573 341.462 426.573 344.5C426.573 347.538 429.003 350 432 350Z" stroke="black" stroke-width="3" stroke-linejoin="round"/>
<path d="M421.66 362H420.812V359.042H417.586V362H416.743V355.602H417.586V358.353H420.812V355.602H421.66V362ZM426.771 360.33H424.09L423.488 362H422.618L425.062 355.602H425.8L428.248 362H427.382L426.771 360.33ZM424.345 359.636H426.521L425.431 356.643L424.345 359.636ZM429.109 362V355.602H431.201C431.895 355.602 432.417 355.745 432.765 356.032C433.117 356.319 433.292 356.744 433.292 357.307C433.292 357.605 433.208 357.871 433.038 358.102C432.868 358.331 432.636 358.508 432.343 358.634C432.689 358.73 432.961 358.915 433.161 359.188C433.363 359.457 433.464 359.779 433.464 360.154C433.464 360.729 433.278 361.18 432.906 361.508C432.534 361.836 432.008 362 431.328 362H429.109ZM429.953 359.007V361.31H431.346C431.738 361.31 432.047 361.209 432.273 361.007C432.501 360.802 432.616 360.521 432.616 360.163C432.616 359.393 432.197 359.007 431.359 359.007H429.953ZM429.953 358.331H431.227C431.596 358.331 431.891 358.238 432.11 358.054C432.333 357.869 432.444 357.619 432.444 357.302C432.444 356.951 432.342 356.696 432.137 356.538C431.932 356.376 431.62 356.296 431.201 356.296H429.953V358.331ZM439.638 359.007C439.638 359.634 439.533 360.182 439.322 360.651C439.111 361.117 438.812 361.473 438.425 361.719C438.039 361.965 437.587 362.088 437.072 362.088C436.568 362.088 436.121 361.965 435.731 361.719C435.342 361.47 435.039 361.117 434.822 360.66C434.608 360.2 434.498 359.668 434.492 359.064V358.603C434.492 357.988 434.599 357.444 434.813 356.973C435.027 356.501 435.329 356.141 435.718 355.892C436.111 355.64 436.559 355.514 437.063 355.514C437.576 355.514 438.027 355.638 438.417 355.887C438.809 356.133 439.111 356.492 439.322 356.964C439.533 357.433 439.638 357.979 439.638 358.603V359.007ZM438.799 358.594C438.799 357.835 438.646 357.254 438.342 356.85C438.037 356.442 437.611 356.239 437.063 356.239C436.53 356.239 436.109 356.442 435.802 356.85C435.497 357.254 435.34 357.816 435.332 358.537V359.007C435.332 359.743 435.485 360.321 435.793 360.743C436.104 361.162 436.53 361.372 437.072 361.372C437.617 361.372 438.039 361.174 438.337 360.778C438.636 360.38 438.79 359.81 438.799 359.069V358.594ZM444.938 355.602H445.782V362H444.938V357.069L441.787 362H440.939V355.602H441.787V360.532L444.938 355.602Z" fill="#4E4E4E"/>
<path d="M512 373.5C514.18 373.5 515.947 371.709 515.947 369.5C515.947 367.291 514.18 365.5 512 365.5C509.82 365.5 508.053 367.291 508.053 369.5C508.053 371.709 509.82 373.5 512 373.5Z" fill="#FFDA00"/>
<path d="M512 375C514.997 375 517.427 372.538 517.427 369.5C517.427 366.462 514.997 364 512 364C509.003 364 506.573 366.462 506.573 369.5C506.573 372.538 509.003 375 512 375Z" stroke="black" stroke-width="3" stroke-linejoin="round"/>
<path d="M488.449 384.97C488.37 385.646 488.12 386.169 487.698 386.539C487.279 386.905 486.721 387.088 486.023 387.088C485.268 387.088 484.661 386.817 484.204 386.275C483.75 385.733 483.523 385.008 483.523 384.1V383.484C483.523 382.89 483.628 382.367 483.839 381.916C484.053 381.464 484.355 381.119 484.745 380.878C485.134 380.635 485.585 380.514 486.098 380.514C486.778 380.514 487.323 380.704 487.733 381.085C488.143 381.463 488.382 381.987 488.449 382.658H487.601C487.528 382.148 487.368 381.779 487.122 381.551C486.879 381.322 486.538 381.208 486.098 381.208C485.559 381.208 485.136 381.407 484.828 381.806C484.523 382.204 484.371 382.771 484.371 383.506V384.126C484.371 384.82 484.516 385.373 484.806 385.783C485.096 386.193 485.502 386.398 486.023 386.398C486.492 386.398 486.851 386.292 487.1 386.082C487.352 385.868 487.519 385.497 487.601 384.97H488.449ZM493.138 385.33H490.458L489.855 387H488.985L491.429 380.602H492.167L494.615 387H493.749L493.138 385.33ZM490.712 384.636H492.888L491.798 381.643L490.712 384.636ZM496.566 380.602L498.658 385.822L500.75 380.602H501.844V387H501V384.508L501.079 381.819L498.979 387H498.333L496.236 381.832L496.32 384.508V387H495.476V380.602H496.566ZM506.946 385.33H504.265L503.663 387H502.793L505.236 380.602H505.975L508.422 387H507.557L506.946 385.33ZM504.52 384.636H506.695L505.605 381.643L504.52 384.636ZM510.127 384.495V387H509.284V380.602H511.644C512.344 380.602 512.892 380.78 513.287 381.138C513.686 381.495 513.885 381.968 513.885 382.557C513.885 383.178 513.69 383.657 513.3 383.994C512.914 384.328 512.358 384.495 511.635 384.495H510.127ZM510.127 383.805H511.644C512.095 383.805 512.44 383.7 512.681 383.489C512.921 383.275 513.041 382.967 513.041 382.566C513.041 382.185 512.921 381.88 512.681 381.652C512.44 381.423 512.111 381.305 511.692 381.296H510.127V383.805ZM516.623 384.126H515.845V387H515.001V380.602H515.845V383.423H516.504L518.741 380.602H519.791L517.348 383.704L519.971 387H518.938L516.623 384.126ZM524.278 385.33H521.597L520.995 387H520.125L522.568 380.602H523.307L525.754 387H524.889L524.278 385.33ZM521.852 384.636H524.027L522.938 381.643L521.852 384.636ZM531.533 387H530.685V384.042H527.459V387H526.616V380.602H527.459V383.353H530.685V380.602H531.533V387ZM538.885 388.569H538.046V387H533.454V388.573H532.61L532.605 386.31H533.128C533.404 386 533.622 385.583 533.783 385.062C533.947 384.538 534.05 383.963 534.091 383.339L534.231 380.602H538.059V386.31H538.894L538.885 388.569ZM534.091 386.31H537.211V381.296H535.044L534.952 383.177C534.914 383.912 534.816 384.539 534.658 385.058C534.502 385.576 534.313 385.994 534.091 386.31Z" fill="#4E4E4E"/>
<path d="M616 275.5C618.18 275.5 619.947 273.709 619.947 271.5C619.947 269.291 618.18 267.5 616 267.5C613.82 267.5 612.053 269.291 612.053 271.5C612.053 273.709 613.82 275.5 616 275.5Z" fill="#FFDA00"/>
<path d="M616 277C618.997 277 621.427 274.538 621.427 271.5C621.427 268.462 618.997 266 616 266C613.003 266 610.573 268.462 610.573 271.5C610.573 274.538 613.003 277 616 277Z" stroke="black" stroke-width="3" stroke-linejoin="round"/>
<path d="M599.164 283.296H597.107V289H596.268V283.296H594.215V282.602H599.164V283.296ZM603.294 287.33H600.614L600.012 289H599.142L601.585 282.602H602.323L604.771 289H603.905L603.294 287.33ZM600.869 286.636H603.044L601.954 283.643L600.869 286.636ZM606.511 282.602V288.31H608.713V282.602H609.552V288.31H611.741V282.602H612.584V289H605.663V282.602H606.511ZM615.766 286.126H614.988V289H614.145V282.602H614.988V285.423H615.647L617.884 282.602H618.935L616.491 285.704L619.115 289H618.082L615.766 286.126ZM623.505 286.042H620.732V288.31H623.953V289H619.888V282.602H623.909V283.296H620.732V285.353H623.505V286.042ZM629.921 289H629.073V286.042H625.847V289H625.003V282.602H625.847V285.353H629.073V282.602H629.921V289ZM635.708 283.296H633.652V289H632.812V283.296H630.76V282.602H635.708V283.296Z" fill="#4E4E4E"/>
<path d="M734 290.5C736.18 290.5 737.947 288.709 737.947 286.5C737.947 284.291 736.18 282.5 734 282.5C731.82 282.5 730.053 284.291 730.053 286.5C730.053 288.709 731.82 290.5 734 290.5Z" fill="#FFDA00"/>
<path d="M734 292C736.997 292 739.427 289.538 739.427 286.5C739.427 283.462 736.997 281 734 281C731.003 281 728.573 283.462 728.573 286.5C728.573 289.538 731.003 292 734 292Z" stroke="black" stroke-width="3" stroke-linejoin="round"/>
<path d="M714.66 304H713.812V301.042H710.586V304H709.743V297.602H710.586V300.353H713.812V297.602H714.66V304ZM719.771 302.33H717.09L716.488 304H715.618L718.062 297.602H718.8L721.248 304H720.382L719.771 302.33ZM717.345 301.636H719.521L718.431 298.643L717.345 301.636ZM723.199 297.602L725.291 302.822L727.382 297.602H728.477V304H727.633V301.508L727.712 298.819L725.611 304H724.965L722.869 298.832L722.953 301.508V304H722.109V297.602H723.199ZM733.579 302.33H730.898L730.296 304H729.426L731.869 297.602H732.607L735.055 304H734.189L733.579 302.33ZM731.153 301.636H733.328L732.238 298.643L731.153 301.636ZM740.834 304H739.986V301.042H736.76V304H735.917V297.602H736.76V300.353H739.986V297.602H740.834V304ZM746.301 298.296H743.216V304H742.368V297.602H746.301V298.296ZM750.023 302.33H747.342L746.74 304H745.87L748.313 297.602H749.052L751.5 304H750.634L750.023 302.33ZM747.597 301.636H749.772L748.683 298.643L747.597 301.636ZM757.278 304H756.43V301.042H753.205V304H752.361V297.602H753.205V300.353H756.43V297.602H757.278V304Z" fill="#4E4E4E"/>
<path d="M767 308.5C769.18 308.5 770.947 306.709 770.947 304.5C770.947 302.291 769.18 300.5 767 300.5C764.82 300.5 763.053 302.291 763.053 304.5C763.053 306.709 764.82 308.5 767 308.5Z" fill="#FFDA00"/>
<path d="M767 310C769.997 310 772.427 307.538 772.427 304.5C772.427 301.462 769.997 299 767 299C764.003 299 761.573 301.462 761.573 304.5C761.573 307.538 764.003 310 767 310Z" stroke="black" stroke-width="3" stroke-linejoin="round"/>
<path d="M747.276 320.33H744.595L743.993 322H743.123L745.566 315.602H746.305L748.752 322H747.887L747.276 320.33ZM744.85 319.636H747.025L745.936 316.643L744.85 319.636ZM754.531 322H753.683V319.042H750.458V322H749.614V315.602H750.458V318.353H753.683V315.602H754.531V322ZM761.883 323.569H761.044V322H756.452V323.573H755.608L755.604 321.31H756.126C756.402 321 756.62 320.583 756.781 320.062C756.945 319.538 757.048 318.963 757.089 318.339L757.229 315.602H761.057V321.31H761.892L761.883 323.569ZM757.089 321.31H760.209V316.296H758.042L757.95 318.177C757.912 318.912 757.814 319.539 757.656 320.058C757.5 320.576 757.312 320.994 757.089 321.31ZM766.928 315.602H767.772V322H766.928V317.069L763.777 322H762.929V315.602H763.777V320.532L766.928 315.602ZM773.885 319.082H773.199V322H772.355V319.082H771.63L769.82 322H768.765L770.918 318.625L768.932 315.602H769.93L771.63 318.379H772.355V315.602H773.199V318.379H773.894L775.594 315.602H776.587L774.601 318.621L776.754 322H775.704L773.885 319.082ZM781.096 320.33H778.416L777.813 322H776.943L779.387 315.602H780.125L782.573 322H781.707L781.096 320.33ZM778.67 319.636H780.846L779.756 316.643L778.67 319.636ZM788.352 322H787.503V319.042H784.278V322H783.434V315.602H784.278V318.353H787.503V315.602H788.352V322Z" fill="#4E4E4E"/>
<path d="M734 328.5C736.18 328.5 737.947 326.709 737.947 324.5C737.947 322.291 736.18 320.5 734 320.5C731.82 320.5 730.053 322.291 730.053 324.5C730.053 326.709 731.82 328.5 734 328.5Z" fill="#FFDA00"/>
<path d="M734 330C736.997 330 739.427 327.538 739.427 324.5C739.427 321.462 736.997 319 734 319C731.003 319 728.573 321.462 728.573 324.5C728.573 327.538 731.003 330 734 330Z" stroke="black" stroke-width="3" stroke-linejoin="round"/>
<path d="M716.902 335.243H717.039C717.522 335.246 717.963 335.359 718.361 335.582C718.76 335.804 719.069 336.112 719.289 336.504C719.511 336.894 719.623 337.331 719.623 337.814C719.623 338.3 719.511 338.741 719.289 339.137C719.066 339.532 718.758 339.841 718.366 340.064C717.973 340.284 717.537 340.396 717.056 340.402H716.902V341.264H716.085V340.402H715.962C715.473 340.402 715.027 340.291 714.626 340.068C714.228 339.846 713.917 339.538 713.694 339.146C713.475 338.753 713.365 338.312 713.365 337.823C713.365 337.333 713.475 336.893 713.694 336.5C713.917 336.107 714.228 335.8 714.626 335.577C715.027 335.354 715.473 335.243 715.962 335.243H716.085V334.338H716.902V335.243ZM715.962 335.907C715.411 335.907 714.975 336.077 714.652 336.417C714.333 336.753 714.173 337.222 714.173 337.823C714.173 338.426 714.333 338.896 714.652 339.233C714.972 339.567 715.411 339.734 715.971 339.734H716.085V335.907H715.962ZM716.902 335.907V339.734H717.025C717.585 339.734 718.021 339.563 718.335 339.22C718.651 338.875 718.81 338.406 718.81 337.814C718.81 337.228 718.651 336.764 718.335 336.421C718.021 336.078 717.579 335.907 717.008 335.907H716.902ZM724.303 338.042H721.53V340.31H724.751V341H720.686V334.602H724.707V335.296H721.53V337.353H724.303V338.042ZM726.645 338.495V341H725.801V334.602H728.161C728.861 334.602 729.409 334.78 729.805 335.138C730.203 335.495 730.402 335.968 730.402 336.557C730.402 337.178 730.208 337.657 729.818 337.994C729.431 338.328 728.876 338.495 728.152 338.495H726.645ZM726.645 337.805H728.161C728.612 337.805 728.958 337.7 729.198 337.489C729.438 337.275 729.559 336.967 729.559 336.566C729.559 336.185 729.438 335.88 729.198 335.652C728.958 335.423 728.628 335.305 728.209 335.296H726.645V337.805ZM735.447 335.296H732.362V341H731.514V334.602H735.447V335.296ZM739.169 339.33H736.489L735.887 341H735.017L737.46 334.602H738.198L740.646 341H739.78L739.169 339.33ZM736.744 338.636H738.919L737.829 335.643L736.744 338.636ZM746.425 341H745.577V338.042H742.351V341H741.507V334.602H742.351V337.353H745.577V334.602H746.425V341ZM751.536 339.33H748.855L748.253 341H747.383L749.826 334.602H750.564L753.012 341H752.146L751.536 339.33ZM749.11 338.636H751.285L750.195 335.643L749.11 338.636Z" fill="#4E4E4E"/>
</g>
<defs>
<clipPath id="clip0">
<rect width="792.487" height="516.878" fill="white"/>
</clipPath>
</defs>
</svg>
